<svg xmlns="http://www.w3.org/2000/svg" width="60" height="60">
    <path fill="#FFF" fill-rule="evenodd" d="M-.008 23.762c.004 6.35 2.482 12.322 6.977 16.816 5.996 5.992 14.809 8.355 23.001 6.166a23.706 23.706 0 0 0 8.499-4.253l17.508 17.498 4.034-4.032-17.508-17.499a23.55 23.55 0 0 0 5.064-14.668c-.004-6.35-2.482-12.322-6.978-16.816-5.995-5.992-14.808-8.355-23-6.166a23.765 23.765 0 0 0-10.64 6.146C2.459 11.442-.012 17.411-.008 23.762zM19.07 6.321a18.171 18.171 0 0 1 17.486 4.686 17.971 17.971 0 0 1 5.302 12.78 17.92 17.92 0 0 1-5.287 12.774 18.05 18.05 0 0 1-8.082 4.67 18.17 18.17 0 0 1-17.485-4.686 17.966 17.966 0 0 1-5.303-12.78 17.928 17.928 0 0 1 5.287-12.774 18.056 18.056 0 0 1 8.082-4.67z"/>
</svg>
