<svg xmlns="http://www.w3.org/2000/svg" width="20" height="19"><defs><linearGradient id="a" x1="0%" x2="0%" y1="100%" y2="0%"><stop offset="0%" stop-color="#C10029"/><stop offset="100%" stop-color="#EB2653"/></linearGradient></defs><path fill="url(#a)" fill-rule="evenodd" d="M3.85 12.63a20.222 20.222 0 0 0 6.731 5.252c.983.464 2.3 1.016 3.766 1.11.091.004.178.008.268.008.985 0 1.775-.339 2.419-1.036a.106.106 0 0 0 .016-.019c.229-.276.49-.524.763-.788.185-.177.375-.362.557-.551.842-.874.842-1.984-.008-2.831l-2.375-2.366c-.403-.417-.885-.638-1.391-.638s-.992.221-1.407.634l-1.415 1.41c-.13-.075-.265-.142-.391-.205a4.837 4.837 0 0 1-.435-.236C9.66 11.559 8.49 10.496 7.371 9.13c-.565-.713-.944-1.311-1.209-1.922a23.43 23.43 0 0 0 1.055-1.027c.119-.122.241-.244.364-.366.427-.425.656-.918.656-1.418 0-.5-.225-.992-.656-1.417L6.403 1.807c-.138-.138-.269-.272-.403-.409a21.336 21.336 0 0 0-.802-.792C4.791.208 4.313 0 3.807 0 3.305 0 2.823.208 2.4.61L.922 2.083a3.015 3.015 0 0 0-.905 1.936c-.075.941.099 1.941.549 3.15.692 1.87 1.735 3.607 3.284 5.461zM.981 4.102c.048-.523.249-.96.628-1.338L3.08 1.299c.229-.22.482-.334.727-.334.241 0 .486.114.711.342.265.244.514.5.783.772l.411.417 1.177 1.173c.245.244.372.492.372.736s-.127.492-.372.737l-.367.37c-.368.37-.711.72-1.091 1.055l-.02.019c-.328.327-.276.638-.197.874l.012.032c.304.728.727 1.421 1.387 2.248 1.185 1.457 2.434 2.587 3.809 3.457.17.11.352.197.522.283.158.079.304.154.435.236l.043.024a.83.83 0 0 0 .384.098c.316 0 .521-.2.588-.267l1.479-1.473c.229-.228.478-.35.723-.35.3 0 .545.185.699.35l2.383 2.37c.475.473.47.985-.012 1.485-.166.177-.34.346-.525.523-.277.268-.565.543-.826.855-.455.488-.996.716-1.696.716a3.51 3.51 0 0 1-.205-.008c-1.296-.082-2.502-.587-3.407-1.016a19.217 19.217 0 0 1-6.406-4.999C3.127 10.256 2.135 8.61 1.479 6.846 1.072 5.764.918 4.893.981 4.102z"/></svg>