<svg xmlns="http://www.w3.org/2000/svg" width="19" height="23"><defs><linearGradient id="a" x1="0%" x2="0%" y1="100%" y2="0%"><stop offset="0%" stop-color="#C10029"/><stop offset="100%" stop-color="#EB2653"/></linearGradient></defs><path fill="url(#a)" fill-rule="evenodd" d="M18.777 20.423a.638.638 0 0 1-.241.3C18.397 20.814 15.071 23 9.507 23 3.942 23 .616 20.818.478 20.723a.604.604 0 0 1-.241-.3c-.245-.638-.24-1.91-.236-2.158v-.014c.005-.038.005-.076.005-.119.028-.938.088-3.143 2.095-3.853a.559.559 0 0 1 .047-.014c2.095-.548 3.82-1.786 3.839-1.801a.611.611 0 0 1 .869.158c.199.29.13.69-.152.895-.079.052-1.92 1.376-4.223 1.986-1.078.395-1.198 1.581-1.231 2.667 0 .043-.004.081-.004.119-.01.429.023 1.091.097 1.472.754.438 3.709 1.958 8.159 1.958 4.469 0 7.406-1.515 8.155-1.953.074-.381.102-1.043.097-1.472-.004-.038-.004-.076-.004-.119-.033-1.086-.153-2.272-1.231-2.667-2.303-.61-4.144-1.929-4.223-1.986a.656.656 0 0 1-.153-.896.613.613 0 0 1 .87-.157c.019.014 1.753 1.253 3.839 1.801l.047.014c2.007.705 2.067 2.91 2.095 3.853 0 .043.005.081.005.119v.014c.004.248.009 1.52-.222 2.153zm-9.21-8.03h-.148c-1.355-.024-2.452-.515-3.256-1.453C4.382 8.873 4.678 5.33 4.71 4.991c.116-2.557 1.3-3.772 2.271-4.339C7.948.086 8.956 0 9.47 0h.078c.935.019 1.772.248 2.489.671.962.567 2.128 1.782 2.244 4.32.032.339.328 3.882-1.453 5.949-.809.938-1.906 1.429-3.261 1.453zm3.474-7.283c-.005-.009-.005-.024-.005-.038-.143-3.229-2.266-3.753-3.515-3.782h-.056c-1.008 0-3.363.367-3.515 3.782 0 .01-.005.024-.005.038-.004.029-.319 3.282 1.147 4.978.579.676 1.36 1.009 2.378 1.019h.046c1.022-.01 1.799-.343 2.382-1.019 1.471-1.705 1.147-4.944 1.143-4.978z"/></svg>